HIERARCHY
ROOT root
{
	OFFSET	0	13.1	24.9
	CHANNELS 6  Xposition Yposition Zposition Xrotation Yrotation Zrotation
	JOINT spine_1
	{
		OFFSET	0	9.99999	0
		CHANNELS 3  Xrotation Yrotation Zrotation
		JOINT spine_2
		{
			OFFSET	0	112	-10
			CHANNELS 3  Xrotation Yrotation Zrotation
			JOINT spine_3
			{
				OFFSET	0	206.5	19.3
				CHANNELS 3  Xrotation Yrotation Zrotation
				JOINT spine_4
				{
					OFFSET	0	110.4	14.6
					CHANNELS 3  Xrotation Yrotation Zrotation
					JOINT neck_1
					{
						OFFSET	0	71.8	-50.3
						CHANNELS 3  Xrotation Yrotation Zrotation
						JOINT neck_2
						{
							OFFSET	0	86.2	-25.8
							CHANNELS 3  Xrotation Yrotation Zrotation
							JOINT head_ee
							{
								OFFSET	0	179.8	-8.7
								CHANNELS 3  Xrotation Yrotation Zrotation
								End Site
								{
									OFFSET	1	0	0
								}
							}
						}
					}
					JOINT left_clavicle
					{
						OFFSET	-43.2	22.4	-70.8
						CHANNELS 3  Xrotation Yrotation Zrotation
						JOINT left_shoulder
						{
							OFFSET	-93.9	-5.79999	48.7
							CHANNELS 3  Xrotation Yrotation Zrotation
							JOINT left_elbow
							{
								OFFSET	-291.4	-30.8	15.2
								CHANNELS 3  Xrotation Yrotation Zrotation
								JOINT left_lowarm_twist
								{
									OFFSET	-110.7	-3.89999	13.6
									CHANNELS 3  Xrotation Yrotation Zrotation
									JOINT left_hand
									{
										OFFSET	-110.7	-3.89999	13.6
										CHANNELS 3  Xrotation Yrotation Zrotation
										JOINT left_ee
										{
											OFFSET	-80.8	-5.10001	12.1
											CHANNELS 3  Xrotation Yrotation Zrotation
											End Site
											{
												OFFSET	1	0	0
											}
										}
									}
								}
							}
						}
					}
					JOINT right_clavicle
					{
						OFFSET	43.2	22.4	-70.8
						CHANNELS 3  Xrotation Yrotation Zrotation
						JOINT right_shoulder
						{
							OFFSET	93.9	-5.79999	48.7
							CHANNELS 3  Xrotation Yrotation Zrotation
							JOINT right_elbow
							{
								OFFSET	291.4	-30.8	15.2
								CHANNELS 3  Xrotation Yrotation Zrotation
								JOINT right_lowarm_twist
								{
									OFFSET	110.7	-3.89999	13.6
									CHANNELS 3  Xrotation Yrotation Zrotation
									JOINT right_hand
									{
										OFFSET	110.7	-3.89999	13.6
										CHANNELS 3  Xrotation Yrotation Zrotation
										JOINT right_ee
										{
											OFFSET	80.8	-5.10001	12.1
											CHANNELS 3  Xrotation Yrotation Zrotation
											End Site
											{
												OFFSET	1	0	0
											}
										}
									}
								}
							}
						}
					}
				}
			}
		}
	}
	JOINT left_hip
	{
		OFFSET	-82.8	-127.5	0.300001
		CHANNELS 3  Xrotation Yrotation Zrotation
		JOINT left_knee
		{
			OFFSET	-28.2	-396.7	2.2
			CHANNELS 3  Xrotation Yrotation Zrotation
			JOINT left_ankle
			{
				OFFSET	-11.7	-411.3	35.4
				CHANNELS 3  Xrotation Yrotation Zrotation
				JOINT left_toes
				{
					OFFSET	0	-60	-88.6
					CHANNELS 3  Xrotation Yrotation Zrotation
					JOINT left_foot_ee
					{
						OFFSET	-22.5	-16.5	-42.2
						CHANNELS 3  Xrotation Yrotation Zrotation
						End Site
						{
							OFFSET	1	0	0
						}
					}
				}
			}
		}
	}
	JOINT right_hip
	{
		OFFSET	82.8	-127.5	0.300001
		CHANNELS 3  Xrotation Yrotation Zrotation
		JOINT right_knee
		{
			OFFSET	28.2	-396.7	2.2
			CHANNELS 3  Xrotation Yrotation Zrotation
			JOINT right_ankle
			{
				OFFSET	11.7	-411.3	35.4
				CHANNELS 3  Xrotation Yrotation Zrotation
				JOINT right_toes
				{
					OFFSET	0	-60	-88.6
					CHANNELS 3  Xrotation Yrotation Zrotation
					JOINT right_foot_ee
					{
						OFFSET	22.5	-16.5	-42.2
						CHANNELS 3  Xrotation Yrotation Zrotation
						End Site
						{
							OFFSET	1	0	0
						}
					}
				}
			}
		}
	}
}
MOTION
Frames: 14
Frame Time: 0.02
3426.19 728.677 -1603.96 7.01082 63.0151 -6.85459 1.47793 0.320096 0.251693 1.47792 0.303431 0.271551 1.47938 0.248005 0.322962 1.47936 0.295898 0.279741 -22.0776 17.2572 2.869 -23.9985 31.9111 11.2203 -0.0 0.0 -0.0 -3.77099 18.1108 -3.6333 -26.2015 -25.2025 72.6583 0.634181 -17.4405 0.0972736 -27.5707 -1.73641 3.03288 0.422829 22.1431 11.3815 -0.0 0.0 -0.0 8.71408 29.624 -15.5931 -10.6095 16.5347 -70.1017 0.895004 23.9102 -0.18951 6.30719 -0.179141 0.785337 3.58378 -30.4955 -32.8355 0.0 0.0 0.0 10.475 11.3728 -5.44843 -46.1033 -0.899977 6.83062 35.334 -1.88983 -4.46792 1.4049 -0.0 -0.0 -0.0 0.0 -0.0 1.0353 22.7741 -4.11539 -20.8297 -0.284854 -3.16621 28.9647 -11.7915 3.79402 40.1014 -0.0 -0.0 0.0 0.0 0.0 
3414.97 727.335 -1605.88 6.6863 62.178 -6.30623 1.68535 0.577106 0.389768 1.68527 0.551134 0.425701 1.68943 0.464862 0.518531 1.68947 0.540919 0.438608 -22.8831 17.6266 2.3514 -25.0756 32.8798 11.2822 -0.0 0.0 -0.0 -4.31675 17.7265 -4.56393 -27.4474 -25.3034 73.4564 0.634927 -17.4597 0.0974973 -26.2021 -1.61705 2.90433 0.766485 21.1194 13.0942 -0.0 0.0 -0.0 8.85497 29.8814 -15.8723 -9.66381 17.1507 -70.2863 0.994088 26.217 -0.231493 6.90685 -0.191648 0.860917 4.04412 -30.8507 -35.9674 0.0 0.0 0.0 16.7137 19.0509 -10.3508 -51.3125 -1.33839 7.50188 31.5593 -5.05257 -4.12808 0.282587 -0.0 -0.0 -0.0 0.0 -0.0 -0.283949 20.5877 -3.89195 -19.024 -0.305975 -2.88996 28.3773 -5.84228 3.71225 40.1037 -0.0 -0.0 0.0 0.0 0.0 
3413.89 726.727 -1611.52 2.87922 61.6799 -2.40221 2.11808 0.581191 0.517824 2.11806 0.547063 0.553756 2.12343 0.442519 0.64039 2.12326 0.538102 0.562468 -22.0063 18.4326 1.42498 -24.3876 34.8258 10.6547 -0.0 0.0 -0.0 -4.71039 17.5623 -5.2172 -28.6727 -25.8984 74.4123 0.591156 -16.3224 0.0847788 -24.7135 -1.49075 2.76133 1.13422 20.1761 15.0332 -0.0 0.0 -0.0 8.9439 29.6522 -16.0967 -7.78456 18.3046 -71.1415 1.13775 29.4051 -0.298548 6.18171 -0.176424 0.769539 4.47678 -31.3462 -39.0421 0.0 0.0 0.0 21.6456 20.7048 -13.7405 -53.0541 -1.49843 7.71722 32.3907 -8.64615 -4.2738 -3.38924 0.0 0.0 -0.0 0.0 -0.0 -0.171915 21.7334 -4.63281 -15.3557 -0.322035 -2.32746 27.0575 -5.0832 3.56649 39.4249 -0.0 -0.0 0.0 0.0 0.0 
3403.62 722.641 -1611.6 3.44392 60.5012 -2.6917 1.95304 0.703065 0.45022 1.9529 0.672992 0.494046 1.9588 0.575177 0.605122 1.9589 0.663525 0.50669 -21.2169 18.401 2.34631 -23.3705 34.3142 11.1375 -0.0 0.0 -0.0 -4.66919 17.275 -5.22219 -29.5111 -25.3595 75.7748 0.543584 -15.0711 0.0719076 -24.5433 -1.47655 2.74477 1.18211 18.5242 14.7907 -0.0 0.0 -0.0 8.83608 31.1784 -15.6672 -6.01393 18.4127 -70.7661 1.3409 33.592 -0.404755 6.88409 -0.191188 0.858047 4.45543 -30.9607 -38.8778 0.0 0.0 0.0 24.7616 19.0816 -15.89 -52.4737 -1.44437 7.646 28.6337 -7.49891 -3.8505 -2.87857 0.0 0.0 -0.0 0.0 -0.0 -0.679519 20.1035 -4.24005 -16.2595 -0.321423 -2.46613 25.9738 -4.24493 3.44554 37.8269 -0.0 -0.0 0.0 0.0 0.0 
3397.96 729.862 -1609.0 0.637294 60.9903 0.142207 2.05969 0.511252 0.48797 2.05969 0.479166 0.519513 2.0641 0.380984 0.595268 2.06392 0.470213 0.52763 -23.1044 17.916 1.1243 -25.531 33.9797 10.4733 -0.0 0.0 -0.0 -4.54636 17.492 -4.97739 -29.5053 -24.3744 76.4176 0.497594 -13.8472 0.0604239 -25.1737 -1.5294 2.80589 1.10417 20.0396 14.8032 -0.0 0.0 -0.0 8.6944 28.965 -15.6286 -5.32154 20.5576 -70.7204 1.37908 34.3374 -0.42609 5.15275 -0.152838 0.640215 4.81594 -30.5757 -41.5545 0.0 0.0 0.0 24.0809 18.2614 -14.9922 -40.2262 -0.481219 6.02991 24.1881 -2.95151 -3.28264 -9.46814 0.0 0.0 -0.0 0.0 -0.0 -2.02948 22.2144 -3.9209 -10.7016 -0.290575 -1.61426 22.5924 -4.44461 3.0496 38.7892 -0.0 -0.0 0.0 0.0 0.0 
3385.75 727.419 -1608.96 -0.0596483 60.6293 0.760106 2.12791 0.502611 0.455752 2.1279 0.472592 0.48681 2.13197 0.380891 0.56147 2.13183 0.464784 0.49427 -23.4917 18.4296 2.52774 -26.0215 34.3514 12.1908 -0.0 0.0 -0.0 -4.5807 17.9627 -4.91831 -30.2471 -23.7396 77.4022 0.461819 -12.8861 0.052153 -23.8053 -1.41555 2.67251 1.23573 19.2308 15.3574 -0.0 0.0 -0.0 8.46978 28.6115 -15.1745 -3.91415 22.2268 -70.4321 1.55263 37.5623 -0.528018 4.32309 -0.132131 0.536258 4.95513 -29.77 -42.6307 0.0 0.0 0.0 23.4935 16.9597 -14.1916 -29.8136 0.0511592 4.52372 20.4835 0.020537 -2.81168 -11.4985 0.0 0.0 -0.0 0.0 -0.0 -2.4358 20.5538 -3.40248 -9.7144 -0.276461 -1.46344 21.6022 -4.53773 2.92997 36.6795 -0.0 -0.0 0.0 0.0 0.0 
3375.71 725.158 -1606.4 -1.35345 59.3063 1.56242 2.25535 0.61687 0.453331 2.25527 0.586773 0.491666 2.26038 0.493814 0.584966 2.26037 0.58 0.499638 -23.269 18.6275 2.84304 -25.7957 34.5884 12.5117 -0.0 0.0 -0.0 -4.42906 18.2821 -4.60772 -30.5439 -23.4834 78.519 0.405161 -11.349 0.0402583 -23.5633 -1.39575 2.64865 1.31449 19.5658 15.9573 -0.0 0.0 -0.0 8.47089 28.7932 -15.1558 -2.26128 22.3281 -70.0798 1.64235 39.1278 -0.583683 3.40756 -0.107535 0.421895 5.0289 -29.5705 -43.2156 0.0 0.0 0.0 24.275 14.1944 -13.4539 -24.5547 0.213838 3.73331 16.6055 2.30274 -2.31051 -14.3904 0.0 0.0 -0.0 0.0 -0.0 -2.68667 20.8997 -2.92062 -9.77969 -0.277474 -1.47341 24.2054 -3.43212 3.24344 37.9962 -0.0 -0.0 0.0 0.0 0.0 
3367.0 722.59 -1608.63 -1.33447 59.6883 1.60586 2.18809 0.582574 0.372055 2.18799 0.557719 0.408372 2.19203 0.478868 0.498502 2.19211 0.551587 0.416618 -24.004 18.6747 3.71373 -26.5834 34.3243 13.5893 -0.0 0.0 -0.0 -4.20926 17.9749 -4.33983 -30.3064 -23.3184 78.7546 0.351198 -9.86935 0.0303225 -23.286 -1.37319 2.62119 1.37191 19.7518 16.3753 -0.0 0.0 -0.0 8.49624 27.8885 -15.3155 -1.39273 22.5179 -69.4504 1.82104 42.0493 -0.699982 3.31589 -0.104972 0.410465 5.00006 -28.5569 -42.9671 0.0 0.0 0.0 24.1143 12.0254 -13.5079 -21.6238 0.27281 3.28747 14.0769 4.09689 -1.97475 -15.6444 0.0 0.0 -0.0 0.0 -0.0 -2.10716 21.0518 -2.71151 -12.1577 -0.306645 -1.8371 25.5538 -2.87038 3.4018 39.2972 -0.0 -0.0 0.0 0.0 0.0 
3355.45 720.917 -1605.43 -2.57277 58.755 2.52426 2.22233 0.633453 0.397995 2.22222 0.606844 0.437497 2.22693 0.522559 0.535346 2.22703 0.600548 0.4461 -24.2899 18.797 4.36772 -26.8902 34.293 14.3539 -0.0 0.0 -0.0 -3.96168 17.9651 -3.95929 -30.3262 -23.1898 79.6375 0.317322 -8.93353 0.0247887 -23.1206 -1.3598 2.60477 1.38895 19.9084 16.5312 -0.0 0.0 -0.0 8.48701 27.7222 -15.3139 -0.743114 22.7079 -69.0361 1.96554 44.2309 -0.798806 3.1748 -0.100991 0.392883 5.07063 -28.2241 -43.5301 0.0 0.0 0.0 23.6714 10.9703 -12.749 -19.428 0.302006 2.95182 12.3211 5.17717 -1.73853 -16.6209 0.0 0.0 -0.0 0.0 -0.0 -1.82564 21.8189 -1.30161 -13.9137 -0.318484 -2.10625 26.3233 -2.4709 3.49123 40.2027 -0.0 -0.0 0.0 0.0 0.0 
3342.41 717.91 -1604.17 -3.33425 58.4021 3.35006 2.26452 0.661236 0.366612 2.26437 0.636568 0.407946 2.26898 0.557298 0.510939 2.26917 0.630996 0.416512 -23.8312 19.1299 5.37356 -26.3504 34.4841 15.2664 -0.0 0.0 -0.0 -3.8418 18.3387 -3.69229 -30.6233 -23.1134 80.2217 0.290806 -8.19764 0.0208393 -23.0049 -1.35046 2.59326 1.38499 19.8044 16.4737 -0.0 0.0 -0.0 8.6642 28.4639 -15.6206 0.195561 22.8835 -68.7412 1.97607 44.3838 -0.80616 1.86446 -0.0619509 0.230064 4.57874 -28.1273 -39.6596 0.0 0.0 0.0 23.741 9.44648 -12.866 -16.4815 0.320938 2.50019 10.5803 7.97403 -1.50086 -17.1837 0.0 0.0 -0.0 0.0 -0.0 -2.54158 25.9084 -0.586441 -14.0106 -0.318897 -2.12111 24.9882 -1.0593 3.34522 39.8157 -0.0 -0.0 0.0 0.0 0.0 
3329.51 713.464 -1600.66 -4.64045 58.2245 4.16274 2.31064 0.65672 0.370215 2.3105 0.631831 0.411255 2.31511 0.552478 0.512943 2.31529 0.626553 0.419252 -24.1419 19.0526 5.16721 -26.7143 34.4405 15.1618 -0.0 0.0 -0.0 -3.59349 18.2941 -3.32145 -30.3168 -23.0195 80.6318 0.274352 -7.73958 0.0185581 -22.8122 -1.33495 2.57404 1.41607 19.8289 16.676 -0.0 0.0 -0.0 8.63805 28.2967 -15.5822 0.256264 22.9708 -68.545 2.10586 46.2051 -0.89842 2.62116 -0.0849506 0.323982 4.93438 -27.5803 -42.4018 0.0 0.0 0.0 25.0019 9.11569 -12.7495 -15.5659 0.322088 2.35972 9.92142 6.71679 -1.41092 -17.7395 0.0 0.0 -0.0 0.0 -0.0 -2.50621 24.156 0.927978 -15.8378 -0.32198 -2.40144 26.957 -1.75932 3.56611 40.0802 -0.0 -0.0 0.0 0.0 0.0 
3311.49 706.159 -1597.13 -4.22142 58.1124 3.56791 2.27811 0.661667 0.348027 2.27795 0.63818 0.389426 2.28237 0.562173 0.492839 2.28259 0.632951 0.397868 -24.4428 19.0709 5.49208 -27.0372 34.3563 15.5768 -0.0 0.0 -0.0 -3.44453 18.4309 -3.06493 -30.7902 -23.0103 80.9803 0.255778 -7.22134 0.01614 -22.8184 -1.33545 2.57467 1.43598 19.9995 16.8539 -0.0 0.0 -0.0 8.5958 28.1192 -15.5092 0.630616 23.1629 -68.0215 2.23614 47.9191 -0.993804 2.44361 -0.0796652 0.301919 4.87802 -27.3889 -41.9407 0.0 0.0 0.0 25.6131 8.37916 -13.0156 -13.6454 0.317209 2.0651 9.4886 7.57108 -1.35111 -18.0312 0.0 0.0 -0.0 0.0 -0.0 -2.86517 23.5746 1.58492 -17.0487 -0.319099 -2.58719 27.4265 -1.38065 3.62066 40.3291 -0.0 -0.0 0.0 0.0 0.0 
3298.79 699.48 -1593.29 -6.02444 58.1057 5.46797 2.49864 0.535964 0.349022 2.49856 0.512669 0.382419 2.50203 0.441481 0.462783 2.5021 0.509028 0.387252 -23.0842 18.9935 5.06711 -25.4604 34.309 14.6088 -0.0 0.0 -0.0 -3.3383 18.5187 -2.88483 -31.0308 -22.8935 81.3153 0.26912 -7.59374 0.0178602 -21.8958 -1.2621 2.48197 1.47182 19.545 16.937 -0.0 0.0 -0.0 8.80455 28.8317 -15.8876 0.997469 23.111 -68.4082 2.22642 47.795 -0.986595 3.70125 -0.115624 0.458539 4.00997 -24.9008 -35.1027 0.0 0.0 0.0 25.8507 7.63291 -13.9594 -2.28162 0.0871965 0.339272 4.53269 9.75926 -0.65574 -20.0267 0.0 0.0 -0.0 0.0 -0.0 -3.80203 29.5745 1.98006 -16.937 -0.319529 -2.57006 29.9301 -0.454371 3.89969 40.1688 -0.0 -0.0 0.0 0.0 0.0 
3286.51 697.637 -1589.31 -8.89564 57.9756 8.76039 2.73749 0.494784 0.310167 2.73742 0.474045 0.341023 2.74029 0.412048 0.413803 2.74036 0.472229 0.343534 -21.1563 19.3031 3.87902 -23.4131 35.3183 13.0016 -0.0 0.0 -0.0 -3.23249 18.6324 -2.70075 -31.1465 -22.8224 81.0207 0.298086 -8.39996 0.02189 -20.8538 -1.18109 2.3759 1.52236 18.2418 16.846 -0.0 0.0 -0.0 8.83292 29.415 -15.8806 1.33324 23.1798 -68.4026 2.21 47.584 -0.974456 4.62629 -0.139873 0.574214 3.28074 -23.1824 -29.6736 0.0 0.0 0.0 26.1067 6.40563 -13.9782 4.0462 -0.187644 -0.592331 -1.703 10.9943 0.250435 -21.4285 0.0 0.0 -0.0 0.0 -0.0 -4.24488 32.4874 2.05675 -14.5528 -0.320745 -2.20427 31.0894 1.09548 4.03427 39.9649 -0.0 -0.0 0.0 0.0 0.0 
